<svg xmlns="http://www.w3.org/2000/svg" xmlns:xlink="http://www.w3.org/1999/xlink" width="910" height="410" viewBox="0 0 910 410">
  <defs>
    <linearGradient id="linear-gradient" x1="305.86" y1="-1799.51" x2="226.81" y2="-1729.49" gradientTransform="matrix(1, 0, 0, -1, 0, -1520.55)" gradientUnits="userSpaceOnUse">
      <stop offset="0" stop-color="#eb459f"/>
      <stop offset="1" stop-color="#ff78b9"/>
    </linearGradient>
    <linearGradient id="linear-gradient-2" x1="181.99" y1="-1747.83" x2="210.04" y2="-1789.24" gradientTransform="matrix(1, 0, 0, -1, 0, -1520.55)" gradientUnits="userSpaceOnUse">
      <stop offset="0" stop-color="#66bcff"/>
      <stop offset="0.3" stop-color="#60b7fd"/>
      <stop offset="0.69" stop-color="#51a9f8"/>
      <stop offset="1" stop-color="#3f99f2"/>
    </linearGradient>
    <linearGradient id="linear-gradient-3" x1="282.89" y1="-1782.93" x2="387.06" y2="-1782.93" gradientTransform="matrix(1, 0, 0, -1, 0, -1520.55)" gradientUnits="userSpaceOnUse">
      <stop offset="0" stop-color="#66bcff"/>
      <stop offset="1" stop-color="#8cd9ff"/>
    </linearGradient>
  </defs>
  <g id="Banner-Product_Features-Right" data-name="Banner-Product&amp;Features-Right">
    <g id="product-right">
      <g>
        <g>
          <path d="M654.7,211.86c3.6,18.8-5.5,36.3-20.4,38.8s-29.2-11.2-32-30.1,6.6-34.9,20.7-37.2S651.3,193.56,654.7,211.86Z" style="fill: #ff78b9"/>
          <path d="M612.1,155.06c-2-7.7-7.2-13.9-14.2-15.9l-15.8,9.3c8.1-.6,10,3.4,12.1,12,4.1,17.1,8,35.7,10.7,44.8l18.9-4.8Z"/>
          <path d="M626,204.06a4.6,4.6,0,0,1-5.1-3.6c-1.5-5.6-4-14.1-6.7-23s-2.8-9.5-4.7-16.3c-3.5-12.4-4.3-13.4-24.6-12.6s-31.4,2.4-49.2,5.2q-8.1,1.2-10.2,4.5c-1.3,2-1.5,5.6-.5,11.4,1.7,9.5,6.4,33.2,9.6,48.6a5.6,5.6,0,0,1-3.7,6.6,4.59,4.59,0,0,1-5.67-3.19,4.13,4.13,0,0,1-.13-.61c-3.2-15.4-7.9-39.3-9.6-48.9-1.1-6.2-1.8-14,2.2-20.1s8.6-7.7,17-9c15.9-2.4,28.3-4.5,50.2-5.3s28.3,0,33.9,19.8c1.9,6.8,2.5,8.7,4.7,16.2,2.6,9,5.1,17.5,6.7,23.3a5.7,5.7,0,0,1-3.3,6.8Z" style="fill: #ff78b9"/>
          <path d="M552.3,227.16c3.3,21.2-7.9,40.9-25.3,43.5s-33.5-12.9-36-34.2,8.9-39.2,25.4-41.7S549,206.56,552.3,227.16Z"/>
          <path d="M511,224.16c-2.8-13.2-7.6-37.7-8.7-49.1-1.1-13.1,5.8-19.9,21.3-28.4l-2.8,20.4,9.3,52.2Z" style="fill: #ff78b9"/>
          <path d="M538.5,229.86c3.4,17.7-5.2,34.3-19.2,36.6s-27.5-10.5-30.2-28.4,6.2-32.8,19.5-35.1S535.3,212.66,538.5,229.86Z" style="fill: #ff78b9"/>
          <path d="M534.7,143.06c-8.4,1.3-13.8,4.2-17,9s-3.3,13.9-2.2,20.1c1.7,9.6,6.4,33.5,9.6,48.9a4.61,4.61,0,0,0,5.19,3.93,4.42,4.42,0,0,0,.61-.13c2.7-.8,5.2,12.4,7.6,5-6-26.5-11.8-50.7-13.5-60.2-1-5.8-.8-9.4.5-11.4s4.8-3.7,10.2-4.5c17.8-2.8,28.9-4.5,49.2-5.2v-10.8C563,138.56,550.6,140.66,534.7,143.06Z" style="fill: #ff78b9"/>
          <path d="M523.4,231.36c2.3,11.9-3.2,23.2-12.4,24.8s-17.9-7.4-19.5-19.5,4.2-21.6,12.6-23.1S521.2,220,523.4,231.36Z" style="fill: #fff"/>
          <path d="M514.3,233.26c1.2,6.3-1.7,12.2-6.6,13s-9.4-3.8-10.3-10.2,2.2-11.4,6.7-12.1S513.1,227.26,514.3,233.26Z" style="fill: #2ae5c4"/>
          <polygon points="509.3 225.26 505.9 235.16 513.1 229.86 512.7 224.76 509.3 225.26" style="fill: #fff"/>
          <path d="M649.1,213.06c3.5,20.2-7.2,39.1-24.1,41.6s-32.7-12.3-35.3-32.7,8.3-37.4,24.3-39.9S645.7,193.36,649.1,213.06Z"/>
          <path d="M628.6,216.56c1.7,10.8-3.3,20.8-11.4,22s-15.7-6.8-17.1-17.7,3.8-20,11.5-21.1S626.8,206,628.6,216.56Z" style="fill: #423d80"/>
          <g>
            <path d="M544.4,303.06h0a10.61,10.61,0,0,1,7.81,12.8,12.23,12.23,0,0,1-.41,1.3,42.53,42.53,0,0,1-18,21l-10.3-7.9c4.7-5.9,7.1-13.2,8.3-19.1A10.5,10.5,0,0,1,544.22,303Z" style="fill: #0ec2bc"/>
            <path d="M529.5,336.26l.4-.3a43.2,43.2,0,0,0,12.1-40.3,2.1,2.1,0,0,0-2.4-1.7,2.2,2.2,0,0,0-1.7,2.5c2.7,14.2-.9,26.2-11,36.6a2.1,2.1,0,0,0,2.6,3.2Z" style="fill: #05a3a6"/>
            <path d="M486.7,335.06c-16.4-15.4,6.1-40.6,23.3-26q3.11,2.7,6.3,6l3,3c10.5,9.8,21.9,14.9,28.9,6.1l-2.3,3.3a39.41,39.41,0,0,1-5.2,5.6c-19.3,17.1-41.1,12-51.3,4.2A31.6,31.6,0,0,1,486.7,335.06Z" style="fill: #73c86e"/>
            <path d="M486.7,335.06c-16.4-15.4,6.1-40.6,23.3-26q3.11,2.7,6.3,6l3,3c10.5,9.8,21.9,14.9,28.9,6.1l-2.3,3.3a39.41,39.41,0,0,1-5.2,5.6c-19.3,17.1-41.1,12-51.3,4.2A31.6,31.6,0,0,1,486.7,335.06Z" style="fill: #34f4cf"/>
          </g>
        </g>
        <g>
          <circle cx="266.9" cy="244.46" r="78.4" style="fill: url(#linear-gradient)"/>
          <path d="M266.9,334.76a90.3,90.3,0,1,1,90.3-90.3A90.3,90.3,0,0,1,266.9,334.76Zm0-174.9a84.6,84.6,0,1,0,84.7,84.6A84.6,84.6,0,0,0,266.9,159.86Z" style="fill: #57f287"/>
          <path d="M170.6,226c-12.6,6.8-.7,27,8.4,41.8s28.8,23.9,49.5,12.4l-1.1-30.8C201.2,228.86,183.1,219.16,170.6,226Z" style="fill: url(#linear-gradient-2)"/>
          <g>
            <path d="M193.7,244.76a1.3,1.3,0,0,0,.9-1.5,1.1,1.1,0,0,0-1.32-.82l-.08,0-24.9,5.8c.3.7.7,1.4,1,2.2Z" style="fill: #4199f0"/>
            <path d="M204.7,249.76c-.1.1-9.3,4.6-27.6,14.9l1.2,2c18.2-10.3,27.3-14.7,27.4-14.8a1.09,1.09,0,0,0,.63-1.42l0-.08A1.3,1.3,0,0,0,204.7,249.76Z" style="fill: #4199f0"/>
            <path d="M189.7,232.36a1.11,1.11,0,0,0-.88-1.29h-.12l-21.8-1.9a16.18,16.18,0,0,0-1.1,2.3l22.7,2h.1a1.1,1.1,0,0,0,1.1-1.1Z" style="fill: #4199f0"/>
          </g>
          <path d="M165.2,241.36a11.31,11.31,0,0,1-7.3-2.5,11.73,11.73,0,0,1-4.5-9.3v-11.7a2.3,2.3,0,0,1,2.3-2.3h0a2.3,2.3,0,0,1,2.4,2.2v11.8a7.21,7.21,0,0,0,2.7,5.6,6.83,6.83,0,0,0,6,1.3l15.6-3.7a11.2,11.2,0,0,0,8.7-11v-12.9a2.3,2.3,0,0,1,2.3-2.3h0a2.3,2.3,0,0,1,2.4,2.2v13a16,16,0,0,1-12.3,15.6l-15.6,3.7Z" style="fill: #1927bc"/>
          <path d="M272.1,155.66c-4.3.5-6.9,5.6.1,22.5l4.4.2C281,160.76,276.3,155.16,272.1,155.66Z" style="fill: #fff"/>
          <path d="M295.6,170.86c14.5-15.3,9.6-22.8,2.6-23.3-8.6-.5-19.8,6.9-23.3,26.8l21.8,17.1c8.1-1.3,16.1-3.1,21.6-6.8a7.7,7.7,0,0,0-1.2-13.4C312.2,169.16,305,168.56,295.6,170.86Z" style="fill: #fff"/>
          <path d="M298.7,255.56s2.8-6.7,11-31.8c6.9-21.1-3.1-46.6-35-49-20.5-1.5-34,9.1-44.7,48.1a74,74,0,0,1-18.2,31.8,42.38,42.38,0,0,0-12.4,29.5,78.3,78.3,0,0,0,142.2-15.9,5.47,5.47,0,0,0,.2-1.2S322.3,261.06,298.7,255.56Z" style="fill: #66bcff"/>
          <path d="M270.8,220.86c3.8-6.2,3.2-15-11.3-32.1s-30.4-25.2-40.6-17.3,2.3,25,12.6,37.4c-17.1,10-19.9,17.7-17.2,25.6s14.4,9.2,25,6.2S265.9,229.06,270.8,220.86Z" style="fill: #ffe75c"/>
          <path d="M254.8,211.76c-11.3-17.5-22.5-25-26.7-26.7s-6.3.8-4.4,5.1,9,13.9,13.4,19.6c-8.8,6.2-15.4,10.2-15.5,15.6s9.4,3.3,16.6-1.4A156,156,0,0,0,254.8,211.76Z" style="fill: #ff962a"/>
          <path d="M292.1,254.56c65.7-36.4,78.3-40.6,86.4-20.4s6.1,41.3-15.6,58.3-29.9,9.7-52.2-.1C283.4,280.46,280.3,261.16,292.1,254.56Z" style="fill: url(#linear-gradient-3)"/>
          <path d="M216.5,196.66h0l-67.8-66.9h0a13.48,13.48,0,0,0-7.7-4.2c-13.4-1.8-27.5,20.1-31.5,49.1s3.7,53.8,17.1,55.7a11.4,11.4,0,0,0,4.5-.3h0l83-19.7h0c1.6-.5,3.1-3.2,3.6-6.7S217.6,197.76,216.5,196.66Z" style="fill: #fff"/>
          <ellipse cx="131.33" cy="177.36" rx="49.6" ry="20.5" transform="translate(-62.22 283.4) rotate(-82.2)" style="fill: #7196ff"/>
          <path d="M153.3,153.06h-.6c-8.2-1.2-16.8,11.2-19,27.5s2.2,29.3,9.8,31.5c4.3-8.2,7.7-19.2,9.4-31.4A106.7,106.7,0,0,0,153.3,153.06Z"/>
          <path d="M21.1,292.36H88.7a21.09,21.09,0,0,1,21.1,21.08h0a21.1,21.1,0,0,1-21.1,21.09H21.1A21.1,21.1,0,0,1,0,313.44H0A21.09,21.09,0,0,1,21.1,292.36Z" style="fill: #ff78b9"/>
          <circle cx="21.1" cy="313.46" r="9.7" style="fill: #eb459f"/>
          <circle cx="54.9" cy="313.46" r="9.7" style="fill: #fff"/>
          <circle cx="88.7" cy="313.46" r="9.7" style="fill: #eb459f"/>
          <path d="M283,205a4.11,4.11,0,0,1,2.8-3.5,7.61,7.61,0,0,1,4.2-.3,9.57,9.57,0,0,1,3.6,1.6,6.41,6.41,0,0,1,2.5,2.9,1.2,1.2,0,0,1-.58,1.59h0a1.09,1.09,0,0,1-1.1-.1h-.1a10.67,10.67,0,0,0-5-1.7,7.75,7.75,0,0,0-2.2.2,11.61,11.61,0,0,0-2.1.4h-.5a1.21,1.21,0,0,1-1.5-.8h0S282.9,205.16,283,205Z"/>
          <path d="M292.1,215.56a1.2,1.2,0,0,1-.9-.5,17.37,17.37,0,0,0-9.8-6.8,1.2,1.2,0,0,1-.7-1.5,1.1,1.1,0,0,1,1.32-.82l.08,0c5.7,1.9,8.3,4.2,10.9,7.7a1.1,1.1,0,0,1-.14,1.55l-.06,0A.89.89,0,0,1,292.1,215.56Z" style="fill: #339aff"/>
          <g>
            <path d="M345.3,243.26h.2c.2,0,13.9-2.7,34.3-5.6a20.86,20.86,0,0,0-.8-2.3c-20.2,2.9-33.8,5.6-33.9,5.6a1.2,1.2,0,0,0-1,1.37v0A1.39,1.39,0,0,0,345.3,243.26Z" style="fill: #66bcff"/>
            <path d="M302.8,271.56a1.2,1.2,0,0,0-1.3-1,1.29,1.29,0,0,0-1.1,1.3c.1.1.9,6.9,1.9,16.2l2.6,1.5C303.8,279.26,302.8,271.66,302.8,271.56Z" style="fill: #66bcff"/>
            <path d="M313.9,265.26a1,1,0,0,0-1.6-.1,1.09,1.09,0,0,0-.25,1.53l.05.07a397.62,397.62,0,0,1,26.4,35.9h2.9A424.37,424.37,0,0,0,313.9,265.26Z" style="fill: #66bcff"/>
            <path d="M370.3,285.76c-16.4-12-38.9-24.3-39.1-24.4a1.19,1.19,0,0,0-1.1,2.1c.2.1,22.3,12.2,38.5,24Z" style="fill: #66bcff"/>
            <path d="M339.6,253.46h0a1.15,1.15,0,0,0-.1,2.29h.1c.2,0,19.8.4,43.2,2.3,0-.8.1-1.6.1-2.4C359.5,253.76,339.9,253.46,339.6,253.46Z" style="fill: #66bcff"/>
          </g>
          <path d="M300.4,288.66l-.6-.2c-4.4-2.8-10-6.9-13.3-13a1.2,1.2,0,0,1,.5-1.6,1.1,1.1,0,0,1,1.48.47l0,0c3.1,5.7,8.4,9.4,12.6,12.1a1.09,1.09,0,0,1,.36,1.51l-.06.09A1.1,1.1,0,0,1,300.4,288.66Z"/>
          <path d="M227.1,270.66h-.4a1,1,0,0,1-.7-.7,16.74,16.74,0,0,1-.8-6.4,44.54,44.54,0,0,0-5.5,2.6c-.4.1-.7.2-1,0a.79.79,0,0,1-.7-.7,14.46,14.46,0,0,1,0-9.5,1.19,1.19,0,0,1,1.5-.7,1.39,1.39,0,0,1,.7,1.6,12.18,12.18,0,0,0-.4,6.5,38.86,38.86,0,0,1,6.3-2.6,1.1,1.1,0,0,1,1.1.2,1,1,0,0,1,.4,1,24.78,24.78,0,0,0,.2,5.9,38.08,38.08,0,0,1,7-2.7,1.2,1.2,0,0,1,1.4.9,1.1,1.1,0,0,1-.72,1.38l-.08,0a31.68,31.68,0,0,0-7.8,3.1Z" style="fill: #4fa8ff"/>
          <path d="M254.6,265.06h-.1a1.13,1.13,0,0,1-.9-.5,15,15,0,0,1-2.2-7.6,1.2,1.2,0,0,1,1.2-1.2,1.31,1.31,0,0,1,1.2,1.2,11.34,11.34,0,0,0,1.2,5.2,15.72,15.72,0,0,1,6.1-2.8,1.21,1.21,0,0,1,1.58.63,1.19,1.19,0,0,1-.63,1.57,1.15,1.15,0,0,1-.55.1,15.57,15.57,0,0,0-6.1,3.2Z" style="fill: #4fa8ff"/>
          <path d="M231.7,227.16a35.66,35.66,0,0,0,6.5-3.2,156,156,0,0,0,16.6-12.2l-4.3-6.1a36.5,36.5,0,0,0-7,4C236.6,215,230.9,222.76,231.7,227.16Z" style="fill: #ff5d12"/>
          <path d="M138.2,128.46h1.1c11.3,1.6,17.3,24.8,13.6,52s-15,46.4-25.9,46.4h-1.2c-11.2-1.6-17.3-24.8-13.6-51.9s15.1-46.5,26-46.5m0-1.8h0c-12.1,0-24,20.6-27.8,48s2.7,52.3,15.1,54H127c12.1,0,24-20.6,27.8-48s-2.8-52.3-15.2-54Z" style="fill: #fff"/>
        </g>
        <path d="M163.2,354.56a13.3,13.3,0,0,1-5.8-9.1l-1-6.3a.6.6,0,0,0-.6-.6h0a.6.6,0,0,0-.6.6l-1,6.3a13.42,13.42,0,0,1-5.9,9.1l-.8.5a.49.49,0,0,0-.3.5h0a.5.5,0,0,0,.3.5l.8.5a13.42,13.42,0,0,1,5.9,9.1l1,6.4a.6.6,0,0,0,.6.5h0a.6.6,0,0,0,.6-.5l1-6.4a13.3,13.3,0,0,1,5.8-9.1l.8-.5a.5.5,0,0,0,.3-.5h0a.49.49,0,0,0-.3-.5Z" style="fill: #fff"/>
        <path d="M416.5,311.66a21.91,21.91,0,0,1-9.8-15.2l-1.6-10.7a1.1,1.1,0,0,0-1.1-.9h0a1,1,0,0,0-1,.9l-1.6,10.7a22,22,0,0,1-9.9,15.2l-1.3.9a.89.89,0,0,0-.5.9h0c0,.4.1.8.5.9l1.3.9a22.21,22.21,0,0,1,9.9,15.3l1.6,10.6a1,1,0,0,0,1,.9h0a1.1,1.1,0,0,0,1.1-.9l1.6-10.6a22.09,22.09,0,0,1,9.8-15.3l1.4-.9a.9.9,0,0,0,.5-.9h0a1.09,1.09,0,0,0-.5-.9Z" style="fill: #ffe75c"/>
        <path d="M364.6,165.06a7,7,0,0,1-3.1-4.9l-.5-3.3a.29.29,0,0,0-.3-.3h0c-.2,0-.3.1-.4.3l-.5,3.3a7,7,0,0,1-3.1,4.9l-.4.3a.2.2,0,0,0-.2.2h0l.2.2.4.3a7.11,7.11,0,0,1,3.1,4.8l.5,3.4c.1.2.2.3.4.3h0a.3.3,0,0,0,.3-.3h0l.5-3.4a7.11,7.11,0,0,1,3.1-4.8l.5-.3c.1,0,.1-.1.1-.2h0c0-.1,0-.2-.1-.2Z" style="fill: #ff99e7"/>
        <path d="M605.5,278.66a6.42,6.42,0,0,1-2.9-4.4l-.5-3.1a.29.29,0,0,0-.3-.3h0q-.19,0-.3.3l-.4,3.1a6.42,6.42,0,0,1-2.9,4.4l-.4.3c-.1,0-.1.1-.1.2h0c0,.1,0,.2.1.2l.4.3a6.4,6.4,0,0,1,2.9,4.4l.4,3.1q.11.3.3.3h0a.3.3,0,0,0,.3-.3h0l.5-3.1a6.4,6.4,0,0,1,2.9-4.4l.4-.3c.1,0,.1-.1.1-.2h0c0-.1,0-.2-.1-.2Z" style="fill: #fff"/>
        <path d="M85.2,224.76A28,28,0,0,1,72.4,205l-2.1-13.8a1.39,1.39,0,0,0-1.4-1.2h0a1.5,1.5,0,0,0-1.4,1.2l-2,13.8a28.31,28.31,0,0,1-12.8,19.8L50.9,226a1.29,1.29,0,0,0-.6,1.1h0a1.4,1.4,0,0,0,.6,1.2l1.8,1.2a28.29,28.29,0,0,1,12.8,19.8l2,13.9a1.5,1.5,0,0,0,1.4,1.2h0a1.4,1.4,0,0,0,1.4-1.2l2.1-13.9a28,28,0,0,1,12.8-19.7l1.7-1.2a1.48,1.48,0,0,0,.7-1.2h0a1.41,1.41,0,0,0-.7-1.1Z" style="fill: #7196ff"/>
      </g>
    </g>
  </g>
</svg>
