<svg xmlns="http://www.w3.org/2000/svg" xmlns:xlink="http://www.w3.org/1999/xlink" width="910" height="410" viewBox="0 0 910 410">
  <defs>
    <linearGradient id="linear-gradient" x1="835.17" y1="-1801.86" x2="879.86" y2="-1766.43" gradientTransform="matrix(1, 0, 0, -1, 0, -1520.55)" gradientUnits="userSpaceOnUse">
      <stop offset="0" stop-color="#66bcff"/>
      <stop offset="1" stop-color="#8cd9ff"/>
    </linearGradient>
    <linearGradient id="linear-gradient-2" x1="761.45" y1="-1661.51" x2="777.21" y2="-1791.14" gradientTransform="matrix(1, 0, 0, -1, 0, -1520.55)" gradientUnits="userSpaceOnUse">
      <stop offset="0" stop-color="#ffc618"/>
      <stop offset="0.31" stop-color="#ffad19"/>
      <stop offset="1" stop-color="#ff7d12"/>
    </linearGradient>
    <linearGradient id="linear-gradient-3" x1="728.81" y1="-1669.93" x2="789.85" y2="-1669.93" xlink:href="#linear-gradient"/>
    <linearGradient id="linear-gradient-4" x1="726.3" y1="-1798.87" x2="726.3" y2="-1836.75" gradientTransform="matrix(1, 0, 0, -1, 0, -1520.55)" gradientUnits="userSpaceOnUse">
      <stop offset="0" stop-color="#66bcff"/>
      <stop offset="1" stop-color="#51b1fc"/>
    </linearGradient>
  </defs>
  <g id="Banner-Product_Features-Right" data-name="Banner-Product&amp;Features-Right">
    <g id="product-left">
      <g>
        <g>
          <path d="M300.4,291.75a6.7,6.7,0,0,1-3.1-4.7l-.5-3.3a.29.29,0,0,0-.3-.3h0a.29.29,0,0,0-.3.3l-.5,3.3a6.7,6.7,0,0,1-3.1,4.7l-.4.3-.2.3h0c0,.1.1.2.2.3l.4.3a6.7,6.7,0,0,1,3.1,4.7l.5,3.3a.29.29,0,0,0,.3.3h0a.29.29,0,0,0,.3-.3l.5-3.3a6.7,6.7,0,0,1,3.1-4.7l.4-.3c.1-.1.2-.2.2-.3h0l-.2-.3Z" style="fill: #ffe75c"/>
          <g>
            <path d="M596.2,220.15l-17.1,34.2a4,4,0,0,1-5.36,1.82l0,0L539.6,239a3.8,3.8,0,0,1-2-2.3L519.8,183a4.37,4.37,0,0,1,.2-3l17.2-34.2a3.89,3.89,0,0,1,5.2-1.85l.1,0,34.2,17.2a3.8,3.8,0,0,1,2,2.3l17.8,53.7A3.88,3.88,0,0,1,596.2,220.15Z" style="fill: #eb459f"/>
            <polygon points="583 201.75 572.4 222.75 551.4 212.25 540.5 179.35 551.1 158.25 572.1 168.85 583 201.75" style="fill: #ff96c8"/>
            <path d="M576.7,161.15,542.5,144a3.39,3.39,0,0,0-2.4-.3l11,14.6,21,10.6,5.9-6.7A4,4,0,0,0,576.7,161.15Z" style="fill: #ff78b9"/>
            <path d="M572.4,222.75l-21-10.5-13.1,25.6a3.45,3.45,0,0,0,1.3,1.1l34.1,17.2a4.5,4.5,0,0,0,3.4.1Z" style="fill: #d11583"/>
            <polygon points="560.2 162.85 542 183.85 543.1 187.15 544.4 191.15 566.4 165.95 560.2 162.85" style="fill: #ffd1e7"/>
            <polygon points="580.6 194.65 576.8 183.05 551.4 212.25 561.1 217.15 580.6 194.65" style="fill: #ffd1e7"/>
            <polygon points="566.4 165.95 563.8 154.65 558.6 152.05 560.2 162.85 566.4 165.95" style="fill: #fff"/>
          </g>
        </g>
        <g>
          <rect x="672.1" y="127.05" width="192.1" height="192.13" rx="14.3" style="fill: #1927bc"/>
          <path d="M688.7,277.75a6.9,6.9,0,0,1-3.1-4.8l-.5-3.3a.5.5,0,0,0-.3-.3h0c-.2,0-.3.2-.4.3L684,273a7.2,7.2,0,0,1-3.1,4.8l-.4.2c-.1.1-.2.2-.2.3h0c0,.2.1.3.2.3l.4.3a7.19,7.19,0,0,1,3.1,4.7l.4,3.3c.1.2.2.3.4.3h0a.29.29,0,0,0,.3-.3l.5-3.3a6.9,6.9,0,0,1,3.1-4.7l.4-.3c.1,0,.1-.1.1-.3h0a.41.41,0,0,0-.1-.3Z" style="fill: #404eed"/>
          <path d="M885.3,243a1.8,1.8,0,0,1-2-1.61,1.77,1.77,0,0,1,.37-1.29L894.9,224a1.79,1.79,0,0,1,2.48-.58l.12.08a1.89,1.89,0,0,1,.4,2.6l-11.1,16.1A2.07,2.07,0,0,1,885.3,243Z"/>
          <path d="M885.3,243a2.56,2.56,0,0,1-1.2-.4,1.81,1.81,0,0,1-.5-2.2,19.42,19.42,0,0,0,.4-13.8,1.71,1.71,0,0,1,.86-2.25l.14-.05a1.8,1.8,0,0,1,2.37.93l0,.07a22.34,22.34,0,0,1,1,11.6c6.9-3.7,12-3.4,12.2-3.3a1.69,1.69,0,0,1,1.71,1.69,1.48,1.48,0,0,1,0,.21,1.69,1.69,0,0,1-1.69,1.71h-.21c-.1,0-6.3-.3-14,5.4A1.85,1.85,0,0,1,885.3,243Z"/>
          <path d="M809.4,300.25a9.9,9.9,0,0,1-1.5-19.7c41.7-6.6,43.5-9.2,66.5-40.2a9.9,9.9,0,1,1,16.81,10.47,10.85,10.85,0,0,1-.91,1.23c-24.9,33.8-31.2,40.4-79.3,48Z" style="fill: url(#linear-gradient)"/>
          <path d="M857.6,261.55l-1.9,2.1,12.3,15.4,2.1-1.9Z" style="fill: #51b1fc"/>
          <path d="M840,273.55l-2.6.9,5.9,18.7,2.7-.9Z" style="fill: #51b1fc"/>
          <path d="M821.4,298.35l2.7-.5-3-19.6-2.7.5Z" style="fill: #51b1fc"/>
          <path d="M869,247.55l-1.6,2.2L882.9,262l1.7-2.2Z" style="fill: #51b1fc"/>
          <path d="M841.6,170.25a28,28,0,0,0-22.3-19.6,184.19,184.19,0,0,0-114.6,18.1,28,28,0,0,0-15.3,25.5,191.63,191.63,0,0,0,8.1,51.3,28.1,28.1,0,0,0,22.4,19.5,183.32,183.32,0,0,0,114.6-18,28.21,28.21,0,0,0,15.3-25.6,206.27,206.27,0,0,0-2.3-25.9A184.25,184.25,0,0,0,841.6,170.25Z" style="fill: url(#linear-gradient-2)"/>
          <path d="M833.1,175.85a19.19,19.19,0,0,0-15.5-13.8,121.19,121.19,0,0,0-40.3,1,124.15,124.15,0,0,0-38.2,14.5,21,21,0,0,0-10.3,18.8,166.83,166.83,0,0,0,1.7,18.8,143.07,143.07,0,0,0,4.2,18.3,19,19,0,0,0,15.4,13.7,119.17,119.17,0,0,0,40.4-1,124.59,124.59,0,0,0,38.1-14.4,21.1,21.1,0,0,0,10.4-18.9,146.48,146.48,0,0,0-1.8-18.7A141.44,141.44,0,0,0,833.1,175.85Z" style="fill: #ff5d12"/>
          <path d="M830,179.15a19.61,19.61,0,0,0-15.4-14,121.49,121.49,0,0,0-40.4.5,124.45,124.45,0,0,0-38.6,14.2,20.9,20.9,0,0,0-10.4,19,135.94,135.94,0,0,0,1.9,19.1,133.42,133.42,0,0,0,4.3,18.5,19.31,19.31,0,0,0,15.7,13.9,120.09,120.09,0,0,0,40.6-1,122,122,0,0,0,38-14.4,20.8,20.8,0,0,0,10.1-18.7,131.63,131.63,0,0,0-1.7-18.8A161.7,161.7,0,0,0,830,179.15Z"/>
          <ellipse cx="699.34" cy="226.64" rx="14.3" ry="22.6" transform="translate(-35.78 220.78) rotate(-17.5)" style="fill: #ffe75c"/>
          <path d="M728.8,158.35c8.8-2.7,15.5-5.4,24.5-2.8,4.2,1.3,8.2,2,27.1-1.2,10.7-1.9,9.7-5.3,9.1-8.8-1-5.4-11.9-7.1-37.9-2.4S728.8,158.35,728.8,158.35Z" style="fill: url(#linear-gradient-3)"/>
          <path d="M829.1,319.25H724.7l4.9-15.5,5.8-18.4a18.43,18.43,0,0,1,1.8-4,16.32,16.32,0,0,1,13.8-7.2l54.7,1.4a15.79,15.79,0,0,1,15.1,11.9Z" style="fill: #ff962a"/>
          <path d="M819.1,319.25H781.5c-.4-3-1-6.7-1.7-11.5-1.2-8.3-2.3-17.8-5.2-24.5a1.51,1.51,0,0,1,.77-2,1.52,1.52,0,0,1,.73-.12l30.8.6a4.09,4.09,0,0,1,3.6,2.3C814.5,291.55,816.4,303.55,819.1,319.25Z" style="fill: #ffe75c"/>
          <path d="M747.1,300.15c-7.1.6-12.9,1.7-17.5,3.6a22.5,22.5,0,0,0-9.9,6.9,23.33,23.33,0,0,0-3.8,8.6H695.7a43.33,43.33,0,0,1,8.3-20.6c7.1-9.2,18-14.9,33.2-17.3q4-.6,8.4-.9a9.9,9.9,0,1,1,2.8,19.6,9.48,9.48,0,0,1-1.3.1Z" style="fill: url(#linear-gradient-4)"/>
          <path d="M804.6,187.25c-7.8-5.2-18.4-3.3-23.5,4.3-7.8-5.2-18.1-3.2-22.8,4.2s-1.9,16.8,5.7,21.5l26.7,16.6,18-24.3C814,202.45,812.2,192.45,804.6,187.25Z" style="fill: #57f287"/>
          <path d="M707.8,294.35l-1.9,2.1,13.9,14.1,1.9-2.1Z" style="fill: #3f99f2"/>
          <path d="M731.4,282.55l-2.7.6,5.6,19,2.7-.6Z" style="fill: #3f99f2"/>
        </g>
        <rect x="672.1" y="319.25" width="192.1" height="17.22" style="fill: #404eed"/>
        <path d="M628.2,240.05a12.82,12.82,0,0,1-5.7-8.9l-1-6.2a.6.6,0,0,0-.6-.6h0a.6.6,0,0,0-.6.6h0l-.9,6.2a13.2,13.2,0,0,1-5.8,8.9l-.8.5a.49.49,0,0,0-.3.5h0a.5.5,0,0,0,.3.5l.8.5a13,13,0,0,1,5.8,8.9l.9,6.2a.6.6,0,0,0,.6.6h0a.6.6,0,0,0,.6-.6h0l1-6.2a12.6,12.6,0,0,1,5.7-8.9l.8-.5a.5.5,0,0,0,.3-.5h0a.49.49,0,0,0-.3-.5Z" style="fill: #66bcff"/>
        <path d="M909.4,285a6.9,6.9,0,0,1-3.1-4.8l-.5-3.3c0-.1-.1-.2-.3-.2h0c-.2,0-.3.1-.3.2l-.5,3.3a6.9,6.9,0,0,1-3.1,4.8l-.4.3a.2.2,0,0,0-.2.2h0a.2.2,0,0,0,.2.2h0l.4.3a6.9,6.9,0,0,1,3.1,4.7l.5,3.4c0,.1.1.2.3.2h0c.2,0,.3-.1.3-.2l.5-3.4a6.9,6.9,0,0,1,3.1-4.7l.4-.3a.2.2,0,0,0,.2-.2h0a.2.2,0,0,0-.2-.2h0Z" style="fill: #57f287"/>
        <path d="M511.5,304.85a27.9,27.9,0,0,1-12.5-19.4l-2.1-13.6a1.29,1.29,0,0,0-1.3-1.1h0a1.4,1.4,0,0,0-1.4,1.1l-2,13.6a28.23,28.23,0,0,1-12.5,19.4l-1.8,1.1a1.39,1.39,0,0,0-.6,1.2h0a1.29,1.29,0,0,0,.6,1.1l1.8,1.2a28,28,0,0,1,12.5,19.4l2,13.5a1.4,1.4,0,0,0,1.4,1.2h0a1.3,1.3,0,0,0,1.3-1.2l2.1-13.5a27.71,27.71,0,0,1,12.5-19.4l1.8-1.2a1.29,1.29,0,0,0,.6-1.1h0a1.39,1.39,0,0,0-.6-1.2Z" style="fill: #7196ff"/>
        <path d="M418.9,241.05a5.1,5.1,0,0,0-4.1-4.5l-11.5-1.8a39.37,39.37,0,0,0-3.8-7.7l5.2-10.4a4.9,4.9,0,0,0-1.2-5.9l-7.4-6.4a5,5,0,0,0-6.1-.3l-9.4,6.8a41.46,41.46,0,0,0-8.2-2.7l-3.7-11a5.1,5.1,0,0,0-5-3.4l-9.7.8a4.9,4.9,0,0,0-4.5,4.1l-1.9,11.4a50.57,50.57,0,0,0-7.7,3.9l-10.4-5.2a4.9,4.9,0,0,0-5.9,1.2l-6.4,7.4a4.8,4.8,0,0,0-.2,6.1l6.7,9.4a46.31,46.31,0,0,0-2.7,8.2l-11,3.6a5.1,5.1,0,0,0-3.4,5.1l.8,9.7a5,5,0,0,0,4.1,4.5l11.4,1.9a50.57,50.57,0,0,0,3.9,7.7l-5.2,10.3a5,5,0,0,0,1.2,6l7.4,6.3a5,5,0,0,0,6.1.3l9.4-6.7a56.2,56.2,0,0,0,8.2,2.7l3.6,11a5,5,0,0,0,5.1,3.3l9.7-.7a4.9,4.9,0,0,0,4.5-4.1l1.9-11.5a37.64,37.64,0,0,0,7.7-3.9l10.3,5.3a5,5,0,0,0,6-1.2l6.4-7.4a5,5,0,0,0,.2-6.1l-6.7-9.5a55,55,0,0,0,2.7-8.1l11-3.7a4.9,4.9,0,0,0,3.3-5Zm-53.9,33a23.8,23.8,0,1,1,21.9-25.6,23.8,23.8,0,0,1-21.9,25.6Z" style="fill: #8cd9ff"/>
        <path d="M471.7,164a2,2,0,0,0-2.1-1.2l-4.5.5a18.3,18.3,0,0,0-2.4-2.5l.8-4.5a1.9,1.9,0,0,0-1.1-2.1l-3.5-1.6a2,2,0,0,0-2.4.6l-2.8,3.6a19.33,19.33,0,0,0-3.4-.1l-2.6-3.8a2,2,0,0,0-2.3-.7l-3.6,1.4a2,2,0,0,0-1.3,2.1l.6,4.5a13.86,13.86,0,0,0-2.5,2.4l-4.5-.9a2.1,2.1,0,0,0-2.2,1.2l-1.5,3.5a1.8,1.8,0,0,0,.5,2.3l3.7,2.9a12.9,12.9,0,0,0-.1,3.4l-3.8,2.6a1.9,1.9,0,0,0-.7,2.3l1.3,3.6a2,2,0,0,0,2.1,1.3l4.6-.6a25.9,25.9,0,0,0,2.3,2.5l-.8,4.5a1.8,1.8,0,0,0,1.1,2.1l3.5,1.6a2,2,0,0,0,2.4-.6l2.8-3.6a12.9,12.9,0,0,0,3.4.1l2.6,3.8a2.2,2.2,0,0,0,2.4.7l3.6-1.4a1.9,1.9,0,0,0,1.2-2l-.5-4.6a18,18,0,0,0,2.4-2.3l4.6.8a2.11,2.11,0,0,0,2.1-1.1l1.6-3.6a2,2,0,0,0-.6-2.3l-3.6-2.9a19.33,19.33,0,0,0,.1-3.4l3.7-2.6a1.9,1.9,0,0,0,.8-2.3Zm-16.8,18.6a9.5,9.5,0,1,1,5.35-12.32l.05.12a9.5,9.5,0,0,1-5.4,12.2Z" style="fill: #1927bc"/>
      </g>
    </g>
  </g>
</svg>
